<svg width="82" height="69" viewBox="0 0 82 69" fill="none" xmlns="http://www.w3.org/2000/svg">
<path d="M60.36 10.88L59.8295 10.0323L59.8269 10.034L60.36 10.88ZM35.208 29.792L34.5369 29.0506L34.0687 29.4744L34.2502 30.0793L35.208 29.792ZM46.632 52.064L45.8147 52.6402L45.8147 52.6402L46.632 52.064ZM61.032 67.808L61.2281 68.7886L63.6199 68.3102L61.5807 66.972L61.032 67.808ZM56.424 68.096L56.3887 69.0954L56.4064 69.096H56.424V68.096ZM48.264 67.808L48.2993 66.8086L48.2816 66.808H48.264V67.808ZM41.064 61.664L40.2536 62.25L40.258 62.2559L41.064 61.664ZM33 47.84L32.09 48.2547L32.0944 48.2641L33 47.84ZM28.776 35.84L29.7612 35.6687L29.4311 33.7707L28.0689 35.1329L28.776 35.84ZM19.56 46.688L18.7394 46.1165L18.7391 46.1169L19.56 46.688ZM15.912 55.52L14.9592 55.2162L14.9565 55.2249L15.912 55.52ZM14.28 68V69H16.0032L15.1482 67.5039L14.28 68ZM1.896 68L0.928216 67.7482L0.602549 69H1.896V68ZM12.648 35.936L11.7139 35.5791L11.713 35.5815L12.648 35.936ZM26.568 6.848L27.386 7.42327L27.568 7.16443V6.848H26.568ZM28.2 4.544L29.0042 5.13839L30.2179 3.49624L28.1765 3.54428L28.2 4.544ZM11.592 7.904L11.9372 8.84254L11.9431 8.84032L11.592 7.904ZM1.896 15.296L2.84468 15.6122L2.84787 15.6027L2.85086 15.5931L1.896 15.296ZM4.392 6.752L3.63076 6.10353L3.62367 6.11185L3.61677 6.12033L4.392 6.752ZM9.48 2.912L9.1021 1.98615L9.0922 1.99019L9.08239 1.99444L9.48 2.912ZM42.888 0.991999L43.4931 1.78816L45.8565 -0.00800133H42.888V0.991999ZM31.56 17.12L30.6739 16.6565L30.6739 16.6565L31.56 17.12ZM20.904 39.968L19.9749 39.5981L21.7206 40.5452L20.904 39.968ZM31.368 27.68L30.6509 26.9831L30.6507 26.9832L31.368 27.68ZM45.48 14.72L46.1143 15.4931L46.1154 15.4922L45.48 14.72ZM61.032 4.352L60.5763 3.46184L60.572 3.46408L61.032 4.352ZM80.616 1.048C78.3611 1.048 75.4977 1.8493 72.0803 3.33934C68.6426 4.83827 64.5566 7.07384 59.8295 10.0323L60.8905 11.7277C65.5714 8.79816 69.5655 6.61772 72.8797 5.17265C76.2143 3.71869 78.7749 3.048 80.616 3.048V1.048ZM59.8269 10.034C50.4389 15.9497 42.0079 22.2881 34.5369 29.0506L35.8791 30.5334C43.2561 23.8559 51.5931 17.5863 60.8931 11.726L59.8269 10.034ZM34.2502 30.0793C36.4008 37.2482 40.2662 44.769 45.8147 52.6402L47.4493 51.4878C41.9898 43.743 38.2392 36.4158 36.1658 29.5046L34.2502 30.0793ZM45.8147 52.6402C51.3356 60.4722 56.224 65.8489 60.4833 68.644L61.5807 66.972C57.648 64.3911 52.9364 59.2718 47.4493 51.4878L45.8147 52.6402ZM60.8359 66.8274C59.9794 66.9987 58.5277 67.096 56.424 67.096V69.096C58.5444 69.096 60.1646 69.0013 61.2281 68.7886L60.8359 66.8274ZM56.4593 67.0966L48.2993 66.8086L48.2287 68.8074L56.3887 69.0954L56.4593 67.0966ZM48.264 66.808C47.7298 66.808 46.9124 66.4869 45.7691 65.5113C44.6522 64.5582 43.3525 63.0907 41.87 61.0721L40.258 62.2559C41.7835 64.3333 43.1878 65.9378 44.4709 67.0327C45.7276 68.1051 47.0062 68.808 48.264 68.808V66.808ZM41.8744 61.0781C38.9061 56.9731 36.2493 52.42 33.9056 47.4159L32.0944 48.2641C34.4867 53.372 37.2059 58.0349 40.2537 62.2499L41.8744 61.0781ZM33.91 47.4253C31.6166 42.3926 30.2511 38.4853 29.7612 35.6687L27.7908 36.0113C28.3249 39.0827 29.7754 43.1754 32.09 48.2547L33.91 47.4253ZM28.0689 35.1329C24.3864 38.8154 21.2746 42.4763 18.7394 46.1165L20.3806 47.2595C22.8374 43.7317 25.8696 40.1606 29.4831 36.5471L28.0689 35.1329ZM18.7391 46.1169C17.6182 47.7283 16.3644 50.8093 14.9593 55.2162L16.8647 55.8238C18.2756 51.3987 19.4538 48.5917 20.3809 47.2591L18.7391 46.1169ZM14.9565 55.2249C13.6148 59.5697 12.896 62.7748 12.896 64.736H14.896C14.896 63.1132 15.5212 60.1743 16.8675 55.8151L14.9565 55.2249ZM12.896 64.736C12.896 65.6195 12.9285 66.3666 12.9989 66.9648C13.0649 67.5259 13.1766 68.0845 13.4118 68.4961L15.1482 67.5039C15.1497 67.5063 15.1418 67.4928 15.1283 67.4563C15.1152 67.4205 15.0992 67.3699 15.0821 67.3015C15.0476 67.1631 15.0139 66.9756 14.9852 66.7312C14.9275 66.2414 14.896 65.5805 14.896 64.736H12.896ZM14.28 67H1.896V69H14.28V67ZM2.86378 68.2518C4.89837 60.4314 8.46766 49.7824 13.583 36.2905L11.713 35.5815C6.58834 49.0976 2.98964 59.8246 0.928216 67.7482L2.86378 68.2518ZM13.5821 36.2929C18.7605 22.7396 23.3649 13.1408 27.386 7.42327L25.75 6.27273C21.5791 12.2032 16.9035 21.9964 11.7139 35.5791L13.5821 36.2929ZM27.568 6.848C27.568 6.99741 27.5333 7.10893 27.5234 7.14022C27.5089 7.18635 27.4942 7.22039 27.4872 7.23612C27.4792 7.25408 27.4726 7.26697 27.4694 7.27307C27.466 7.27971 27.4638 7.28357 27.4635 7.28401C27.4633 7.28448 27.4664 7.279 27.4745 7.26588C27.4824 7.25331 27.493 7.23661 27.507 7.21525C27.5646 7.12706 27.6581 6.99111 27.792 6.80202C28.058 6.42648 28.4612 5.87301 29.0042 5.13839L27.3958 3.94961C26.8508 4.68699 26.438 5.25352 26.16 5.64598C26.0219 5.84089 25.9114 6.00094 25.833 6.12075C25.795 6.17887 25.756 6.24052 25.7235 6.29798C25.7081 6.3252 25.6843 6.36847 25.6616 6.41938C25.6503 6.44461 25.6324 6.48677 25.6157 6.53965C25.6038 6.57769 25.568 6.69459 25.568 6.848H27.568ZM28.1765 3.54428C22.6133 3.67517 16.9668 4.82046 11.2409 6.96767L11.9431 8.84032C17.4812 6.76353 22.9067 5.66882 28.2235 5.54372L28.1765 3.54428ZM11.2468 6.96547C5.64429 9.02616 1.98831 11.633 0.941143 14.9989L2.85086 15.5931C3.59569 13.199 6.40371 10.8778 11.9372 8.84252L11.2468 6.96547ZM0.947316 14.9798C0.962567 14.934 1.01486 14.8149 1.152 14.712C1.2936 14.6058 1.43613 14.584 1.512 14.584V16.584C1.77987 16.584 2.0824 16.5142 2.352 16.312C2.61714 16.1131 2.76543 15.85 2.84468 15.6122L0.947316 14.9798ZM1.512 14.584C1.52157 14.584 1.57868 14.5868 1.65228 14.6267C1.72801 14.6677 1.77094 14.7207 1.78766 14.7479C1.80027 14.7684 1.7869 14.7556 1.7716 14.6811C1.75655 14.6077 1.744 14.4958 1.744 14.336H-0.256C-0.256 14.8221 -0.187054 15.3551 0.0843416 15.7961C0.404741 16.3167 0.929057 16.584 1.512 16.584V14.584ZM1.744 14.336C1.744 14.4331 1.72703 14.4962 1.7356 14.4544C1.73885 14.4386 1.74628 14.4061 1.76028 14.3519C1.78792 14.2448 1.83206 14.0878 1.8948 13.8761C2.0197 13.4545 2.2091 12.8467 2.46442 12.0488L0.559576 11.4392C0.302904 12.2413 0.108303 12.8654 -0.022798 13.3079C-0.088055 13.5282 -0.139917 13.7112 -0.176277 13.8521C-0.194281 13.9219 -0.210851 13.9904 -0.223603 14.0526C-0.23103 14.0888 -0.256 14.2069 -0.256 14.336H1.744ZM2.46442 12.0488C2.9281 10.5998 3.81384 9.04466 5.16724 7.38367L3.61677 6.12033C2.15416 7.91534 1.1199 9.68821 0.559576 11.4392L2.46442 12.0488ZM5.15324 7.40047C6.53473 5.77872 8.1094 4.59577 9.87761 3.82955L9.08239 1.99444C7.0106 2.89222 5.19327 4.26928 3.63076 6.10353L5.15324 7.40047ZM9.8579 3.83784C12.8377 2.62159 16.6037 1.992 21.192 1.992V-0.00800133C16.4363 -0.00800133 12.3943 0.642407 9.1021 1.98615L9.8579 3.83784ZM21.192 1.992H42.888V-0.00800133H21.192V1.992ZM42.2829 0.195836C38.8885 2.77559 35.0264 8.33557 30.6739 16.6565L32.4461 17.5835C36.7976 9.26443 40.4875 4.0724 43.4931 1.78816L42.2829 0.195836ZM30.6739 16.6565C26.3099 24.9995 22.7424 32.6472 19.9749 39.5981L21.8331 40.3379C24.5696 33.4648 28.1061 25.8805 32.4461 17.5835L30.6739 16.6565ZM21.7206 40.5452C24.3059 36.888 27.7571 32.8323 32.0853 28.3768L30.6507 26.9832C26.2749 31.4877 22.7501 35.624 20.0874 39.3908L21.7206 40.5452ZM32.0851 28.3769C36.4745 23.8604 41.1508 19.5657 46.1143 15.4931L44.8457 13.9469C39.8252 18.0663 35.0935 22.4116 30.6509 26.9831L32.0851 28.3769ZM46.1154 15.4922C51.1222 11.3727 56.2479 7.95674 61.492 5.23991L60.572 3.46408C55.1921 6.25126 49.9498 9.74732 44.8446 13.9478L46.1154 15.4922ZM61.4877 5.24214C66.7898 2.52798 71.2997 1.224 75.048 1.224V-0.776003C70.8603 -0.776003 66.0262 0.672017 60.5763 3.46185L61.4877 5.24214ZM75.048 1.224C77.0462 1.224 78.4692 1.33665 79.3671 1.53618C79.8233 1.63757 80.0618 1.74434 80.1633 1.81205C80.2451 1.86657 80.096 1.79009 80.096 1.568H82.096C82.096 0.897904 81.6949 0.429419 81.2727 0.147947C80.8703 -0.120351 80.3527 -0.293573 79.8009 -0.41619C78.6828 -0.664655 77.0818 -0.776003 75.048 -0.776003V1.224ZM80.096 1.568C80.096 1.56765 80.0957 1.52663 80.1173 1.46177C80.1406 1.39206 80.1867 1.30305 80.2689 1.22089C80.3511 1.13873 80.4401 1.09255 80.5098 1.06931C80.5746 1.04769 80.6157 1.048 80.616 1.048V3.048C80.9301 3.048 81.3494 2.96878 81.6831 2.6351C82.0168 2.30142 82.096 1.88214 82.096 1.568H80.096Z" fill="#FF00FF"/>
</svg>
